HIERARCHY
ROOT Hips
{
	OFFSET 0.00000 0.00000 0.00000
	CHANNELS 6 Xposition Yposition Zposition Zrotation Yrotation Xrotation 
	JOINT LHipJoint
	{
		OFFSET 0 0 0
		CHANNELS 3 Zrotation Yrotation Xrotation
		JOINT LeftUpLeg
		{
			OFFSET 1.41261 -1.82971 0.84908
			CHANNELS 3 Zrotation Yrotation Xrotation
			JOINT LeftLeg
			{
				OFFSET 2.52554 -6.93888 0.00000
				CHANNELS 3 Zrotation Yrotation Xrotation
				JOINT LeftFoot
				{
					OFFSET 2.56654 -7.05152 0.00000
					CHANNELS 3 Zrotation Yrotation Xrotation
					JOINT LeftToeBase
					{
						OFFSET 0.21698 -0.59616 1.85369
						CHANNELS 3 Zrotation Yrotation Xrotation
						End Site
						{
							OFFSET 0.00000 -0.00000 0.97832
						}
					}
				}
			}
		}
	}
	JOINT RHipJoint
	{
		OFFSET 0 0 0
		CHANNELS 3 Zrotation Yrotation Xrotation
		JOINT RightUpLeg
		{
			OFFSET -1.12808 -1.82971 0.84907
			CHANNELS 3 Zrotation Yrotation Xrotation
			JOINT RightLeg
			{
				OFFSET -2.53425 -6.96280 0.00000
				CHANNELS 3 Zrotation Yrotation Xrotation
				JOINT RightFoot
				{
					OFFSET -2.58413 -7.09983 0.00000
					CHANNELS 3 Zrotation Yrotation Xrotation
					JOINT RightToeBase
					{
						OFFSET -0.26437 -0.72636 1.92241
						CHANNELS 3 Zrotation Yrotation Xrotation
						End Site
						{
							OFFSET -0.00000 -0.00000 1.02667
						}
					}
				}
			}
		}
	}
	JOINT LowerBack
	{
		OFFSET 0 0 0
		CHANNELS 3 Zrotation Yrotation Xrotation
		JOINT Spine
		{
			OFFSET -0.02096 2.02288 -0.14752
			CHANNELS 3 Zrotation Yrotation Xrotation
			JOINT Spine1
			{
				OFFSET 0.03477 2.03136 -0.02358
				CHANNELS 3 Zrotation Yrotation Xrotation
				JOINT Neck
				{
					OFFSET 0 0 0
					CHANNELS 3 Zrotation Yrotation Xrotation
					JOINT Neck1
					{
						OFFSET 0.00174 1.74359 0.19336
						CHANNELS 3 Zrotation Yrotation Xrotation
						JOINT Head
						{
							OFFSET -0.03054 1.76140 -0.17751
							CHANNELS 3 Zrotation Yrotation Xrotation
							End Site
							{
								OFFSET -0.00863 1.77239 -0.08120
							}
						}
					}
				}
				JOINT LeftShoulder
				{
					OFFSET 0 0 0
					CHANNELS 3 Zrotation Yrotation Xrotation
					JOINT LeftArm
					{
						OFFSET 3.68685 1.32687 -0.67367
						CHANNELS 3 Zrotation Yrotation Xrotation
						JOINT LeftForeArm
						{
							OFFSET 4.76468 -0.00000 -0.00000
							CHANNELS 3 Zrotation Yrotation Xrotation
							JOINT LeftHand
							{
								OFFSET 3.52712 -0.00000 -0.00000
								CHANNELS 3 Zrotation Yrotation Xrotation
								JOINT LeftFingerBase
								{
									OFFSET 0 0 0
									CHANNELS 3 Zrotation Yrotation Xrotation
									JOINT LeftHandIndex1
									{
										OFFSET 0.85956 -0.00000 -0.00000
										CHANNELS 3 Zrotation Yrotation Xrotation
										End Site
										{
											OFFSET 0.69300 -0.00000 -0.00000
										}
									}
								}
								JOINT LThumb
								{
									OFFSET 0 0 0
									CHANNELS 3 Zrotation Yrotation Xrotation
									End Site
									{
										OFFSET 0.70358 -0.00000 0.70358
									}
								}
							}
						}
					}
				}
				JOINT RightShoulder
				{
					OFFSET 0 0 0
					CHANNELS 3 Zrotation Yrotation Xrotation
					JOINT RightArm
					{
						OFFSET -3.31304 1.28268 -0.97357
						CHANNELS 3 Zrotation Yrotation Xrotation
						JOINT RightForeArm
						{
							OFFSET -4.90577 -0.00000 -0.00000
							CHANNELS 3 Zrotation Yrotation Xrotation
							JOINT RightHand
							{
								OFFSET -3.42692 -0.00000 0.00000
								CHANNELS 3 Zrotation Yrotation Xrotation
								JOINT RightFingerBase
								{
									OFFSET 0 0 0
									CHANNELS 3 Zrotation Yrotation Xrotation
									JOINT RightHandIndex1
									{
										OFFSET -0.74096 -0.00000 -0.00000
										CHANNELS 3 Zrotation Yrotation Xrotation
										End Site
										{
											OFFSET -0.59738 -0.00000 -0.00000
										}
									}
								}
								JOINT RThumb
								{
									OFFSET 0 0 0
									CHANNELS 3 Zrotation Yrotation Xrotation
									End Site
									{
										OFFSET -0.60650 -0.00000 0.60650
									}
								}
							}
						}
					}
				}
			}
		}
	}
}
MOTION
Frames: 10
Frame Time: .0083333
-14.6331 17.9542 -25.8952 0 0 0 0 0 0 -21 0 0 0 0 0 0 0 0 0 0 0 0 0 0 21 0 0 0 0 0 0 0 0 0 0 0 0 0 0 0 0 0 0 0 0 0 0 -16 0 0 21 0 0 11 0 0 0 -8 0 0 0 0 0 0 0 0 0 0 0 0 0 0 0 0 0 0 0 0 8 0 0 0 0 0 0 0 0 0 0 0 0 0 0 0 0 0
-14.6331 17.9542 -25.8952 0.5205 42.1227 5.1512 0.0000 0.0000 0.0000 -21.6595 1.8495 3.7290 0.2961 3.4992 9.6718 0.9107 -8.3611 -17.1468 1.3119 -7.2551 -20.4734 0.0000 0.0000 0.0000 17.7764 3.1968 -19.8021 -1.9465 -8.7537 25.0278 -0.2812 -3.4447 -11.8915 -0.4831 -4.4569 12.3657 -7.2162 -3.1981 8.9034 3.6136 -4.8193 0.2452 8.4498 -2.2373 -3.8220 -3.1102 -2.3280 -6.9141 2.5592 -2.9799 5.0111 1.2353 -1.4516 2.9163 0.0000 -0.0000 0.0000 -92.8992 -2.0004 -0.7567 23.5453 -34.6797 -7.4462 -0.0000 -0.0000 30.5951 -8.7774 -24.5892 3.6762 -7.1250 0.0000 -0.0000 -22.9442 6.6276 22.0372 0.0000 -0.0000 0.0000 84.1602 1.5128 0.7892 -14.9173 24.0307 -3.1922 0.0000 -0.0000 -2.8644 -9.4952 -36.2864 5.6531 7.1250 -0.0000 -0.0000 30.4855 -64.1143 -14.7794
-14.7124 17.9583 -26.0032 0.7341 42.0823 5.4523 0.0000 0.0000 0.0000 -21.9226 1.9388 3.4107 0.2530 3.2363 8.9373 0.8517 -8.2678 -16.5964 1.2661 -7.1323 -20.1079 0.0000 0.0000 0.0000 17.4316 3.3738 -20.3049 -1.9124 -8.6813 24.8032 -0.2732 -3.6263 -11.8902 -0.4103 -4.1120 11.3921 -7.2269 -2.9915 8.9647 3.4170 -4.5570 0.2581 8.2246 -2.1029 -3.9095 -2.8212 -2.2466 -7.1957 2.2334 -2.8739 5.3224 1.0808 -1.4033 3.0587 -0.0000 0.0000 0.0000 -92.6011 -2.7909 -0.0057 24.1764 -35.3502 -7.8084 -0.0000 -0.0000 29.0582 -8.1711 -24.5921 3.4196 -7.1250 0.0000 -0.0000 -22.6046 6.6204 21.6517 -0.0000 0.0000 0.0000 84.5976 1.7425 3.7604 -15.4469 24.7650 -3.4110 0.0000 -0.0000 -2.4010 -9.7150 -36.5110 5.8162 7.1250 -0.0000 -0.0000 30.5238 -64.3627 -14.9751
-14.7902 17.9684 -26.1058 0.7236 41.9629 5.5780 0.0000 0.0000 0.0000 -21.9186 2.0694 3.0873 0.2190 3.0128 8.3143 0.7910 -8.4162 -16.0456 1.1690 -6.8632 -19.3108 0.0000 0.0000 0.0000 17.3050 3.4179 -20.9363 -1.9108 -8.6777 24.7923 -0.2338 -3.5986 -11.1863 -0.5701 -4.8354 13.4397 -7.1417 -2.7360 9.0284 3.2901 -4.2165 0.2701 8.0111 -1.9301 -4.0135 -2.6053 -2.1742 -7.3496 1.9654 -2.7789 5.5513 0.9585 -1.3609 3.1534 -0.0000 0.0000 0.0000 -92.4111 -3.4658 0.5412 24.9496 -36.1524 -8.2602 -0.0000 -0.0000 28.7438 -7.9170 -24.5657 3.3088 -7.1250 0.0000 -0.0000 -22.4641 6.6426 21.4812 -0.0000 0.0000 0.0000 84.8109 2.0872 6.7355 -15.6725 25.0746 -3.5060 0.0000 -0.0000 -2.3146 -9.9250 -35.7224 5.8332 7.1250 -0.0000 -0.0000 29.3766 -63.7527 -13.9484
-14.8697 17.9826 -26.1963 1.0625 41.7719 5.9131 0.0000 0.0000 0.0000 -22.1101 2.4674 2.5826 0.1972 2.8593 7.8873 0.7156 -8.8207 -15.3824 1.1946 -6.9352 -19.5235 0.0000 0.0000 0.0000 16.8566 3.3382 -21.5289 -1.8965 -8.6470 24.6972 -0.2576 -2.4378 -10.8026 -0.7339 -5.4733 15.2634 -7.5137 -2.4605 9.0184 3.1613 -3.8922 0.3150 8.0518 -1.7645 -4.0062 -2.4205 -2.0105 -7.5785 1.6107 -2.5499 5.7615 0.8198 -1.2562 3.2530 -0.0000 -0.0000 0.0000 -92.3449 -3.9921 0.8778 25.8192 -37.0296 -8.7785 -0.0000 -0.0000 29.0176 -7.9134 -24.7370 3.3289 -7.1250 0.0000 -0.0000 -22.4483 6.4826 21.5385 -0.0000 -0.0000 0.0000 84.7219 2.8707 9.5652 -15.4805 24.8112 -3.4250 0.0000 -0.0000 -1.9337 -8.9693 -34.7609 5.1422 7.1250 -0.0000 -0.0000 29.3114 -62.6823 -13.1808
-14.9488 18.0029 -26.2800 1.6144 41.5554 6.4604 0.0000 0.0000 0.0000 -22.4926 2.8217 1.8632 0.1883 2.7944 7.7069 0.6558 -9.2284 -14.8724 1.3144 -7.2617 -20.4929 0.0000 0.0000 0.0000 16.2046 3.5060 -21.6447 -1.7700 -8.3696 23.8423 -0.1807 -2.9331 -9.6653 -1.2875 -7.1899 20.2792 -8.0923 -2.2110 8.9194 3.0013 -3.6191 0.3476 8.1772 -1.6236 -3.9442 -2.2295 -1.8473 -7.8903 1.2345 -2.3192 6.1691 0.6724 -1.1521 3.4393 0.0000 0.0000 0.0000 -92.3851 -4.4141 1.1825 26.5893 -37.7847 -9.2464 -0.0000 -0.0000 28.8250 -7.4631 -25.0574 3.1756 -7.1250 0.0000 -0.0000 -22.1707 6.1774 21.3641 0.0000 0.0000 0.0000 84.7849 3.3220 12.4099 -15.8508 25.3179 -3.5819 0.0000 -0.0000 -1.1179 -7.6297 -34.6961 4.3604 7.1250 -0.0000 -0.0000 30.6254 -62.2852 -13.5436
-15.0208 18.0235 -26.3691 1.7739 41.3785 6.7635 0.0000 0.0000 0.0000 -22.6667 2.7465 1.2143 0.1862 2.7795 7.6654 0.6231 -9.2854 -14.5570 1.4076 -7.5043 -21.2182 0.0000 0.0000 0.0000 15.9266 3.7021 -21.6537 -1.6382 -8.0679 22.9204 -0.1703 -2.8470 -9.3836 -1.4423 -7.5924 21.4826 -8.1224 -2.0011 8.9166 2.8276 -3.3517 0.2994 7.9824 -1.4833 -4.0556 -2.1004 -1.7977 -7.8454 1.0789 -2.2573 6.5642 0.6015 -1.1255 3.5623 -0.0000 -0.0000 0.0000 -92.4073 -4.5739 1.6260 27.3231 -38.4856 -9.6995 -0.0000 -0.0000 28.1418 -6.7535 -25.1282 2.8787 -7.1250 0.0000 -0.0000 -21.7663 6.0990 20.9412 -0.0000 -0.0000 0.0000 84.6694 3.6379 16.0984 -16.0385 25.5728 -3.6626 0.0000 -0.0000 -1.0681 -6.8687 -34.5007 3.9032 7.1250 -0.0000 -0.0000 31.1950 -61.9288 -13.5593
-15.0869 18.0406 -26.4559 1.4500 41.2760 6.6264 0.0000 0.0000 0.0000 -22.4657 2.5105 0.8068 0.1851 2.7712 7.6425 0.5963 -9.1350 -14.2502 1.4474 -7.6052 -21.5213 0.0000 0.0000 0.0000 16.1376 3.6164 -21.7518 -1.5790 -7.9278 22.4949 -0.2452 -2.1077 -10.3717 -1.2099 -6.9779 19.6498 -7.6414 -1.8390 9.0952 2.7300 -3.1057 0.2197 7.5890 -1.3543 -4.3186 -1.9496 -1.8327 -7.6523 0.6388 -2.2884 7.1763 0.4275 -1.1576 3.7299 -0.0000 -0.0000 0.0000 -92.3881 -4.3516 2.1096 28.1423 -39.2469 -10.2136 -0.0000 -0.0000 27.8030 -6.2906 -25.2826 2.6955 -7.1250 0.0000 -0.0000 -21.4945 5.9446 20.7034 -0.0000 -0.0000 0.0000 84.9755 3.6985 18.0804 -16.5274 26.2305 -3.8761 0.0000 0.0000 0.3673 -5.5985 -34.1619 3.1506 7.1250 -0.0000 -0.0000 32.1241 -61.3300 -13.5521
-15.1521 18.0559 -26.5326 1.0731 41.2187 6.3569 0.0000 0.0000 0.0000 -22.1653 2.4247 0.5128 0.1844 2.7657 7.6271 0.5716 -9.0456 -13.9730 1.4562 -7.6273 -21.5877 0.0000 0.0000 0.0000 16.4549 3.3515 -21.8249 -1.5651 -7.8946 22.3943 -0.3879 -1.1601 -12.2433 -0.7849 -5.6559 15.7893 -7.1814 -1.6968 9.3276 2.6857 -2.8863 0.1749 7.2679 -1.2414 -4.5613 -1.9410 -1.6675 -7.2991 0.5693 -2.0689 7.0116 0.4184 -1.0518 3.5980 0.0000 0.0000 0.0000 -92.4222 -3.9805 2.6225 28.9027 -39.9341 -10.6982 -0.0000 -0.0000 27.4451 -5.8459 -25.3851 2.5133 -7.1250 0.0000 -0.0000 -21.2364 5.8379 20.4602 0.0000 0.0000 0.0000 85.4499 3.6622 19.4764 -17.1852 27.1012 -4.1713 0.0000 0.0000 2.4201 -4.5223 -34.1500 2.5423 7.1250 -0.0000 -0.0000 33.1897 -61.0572 -13.8421
-15.2148 18.0703 -26.6040 0.9564 41.0368 6.1935 0.0000 0.0000 0.0000 -22.1344 2.2562 0.3493 0.1837 2.7605 7.6126 0.5531 -8.8570 -13.7344 1.4462 -7.6023 -21.5125 0.0000 0.0000 0.0000 16.5748 3.0206 -21.9362 -1.6022 -7.9831 22.6628 -0.4566 -1.1698 -13.2416 -0.6936 -5.3240 14.8351 -6.9974 -1.4860 9.5112 2.6164 -2.5994 0.2145 7.0629 -1.0987 -4.6841 -1.5361 -1.5295 -7.7224 -0.0109 -1.8673 7.7822 0.1603 -0.9681 3.9376 -0.0000 0.0000 0.0000 -92.5057 -3.6916 3.2378 29.4920 -40.4540 -11.0785 -0.0000 -0.0000 26.9649 -5.4836 -25.3762 2.3559 -7.1250 0.0000 -0.0000 -21.0317 5.8365 20.2317 -0.0000 0.0000 0.0000 85.6625 3.9566 21.2944 -17.5393 27.5633 -4.3340 0.0000 0.0000 3.5229 -4.3815 -34.3525 2.4757 7.1250 -0.0000 -0.0000 33.5436 -61.1900 -14.1158
